Coordinates
version=1
nRows=19
nColumns=24
inDegrees=yes

Units are S.I. units (second, meters, Newtons, ...)
Angles are in degrees.

endheader
time	pelvis_tilt	pelvis_list	pelvis_rotation	pelvis_tx	pelvis_ty	pelvis_tz	hip_flexion_r	hip_adduction_r	hip_rotation_r	knee_angle_r	ankle_angle_r	subtalar_angle_r	mtp_angle_r	hip_flexion_l	hip_adduction_l	hip_rotation_l	knee_angle_l	ankle_angle_l	subtalar_angle_l	mtp_angle_l	lumbar_extension	lumbar_bending	lumbar_rotation
      0.92516667	     -2.77163306	     -0.77596565	     -5.30103563	     -0.13490740	      0.89782303	      0.33784290	    -13.08078397	      4.03655916	      1.68520716	     -9.72416632	     15.26023696	      8.21762341	      7.37592176	     29.28630095	     -2.16895557	     -7.37031616	    -15.63547224	      4.45267132	     -3.59610900	     -0.19128671	     -5.86257942	      1.46705535	      9.87871257
      0.92933333	     -2.88943883	     -0.76556848	     -5.42449497	     -0.12916108	      0.89648339	      0.33770409	    -13.01985675	      3.94421316	      1.77947236	    -10.42074071	     15.49510427	      8.44771981	      7.61287986	     29.38033099	     -2.16257288	     -7.15172964	    -15.62182499	      4.54161161	     -3.60357670	     -0.20147569	     -5.70845883	      1.39613164	      9.96130480
      0.93350000	     -2.95714014	     -0.73450979	     -5.52587052	     -0.12334002	      0.89526153	      0.33749870	    -12.99821634	      3.81901308	      1.77058035	    -11.13691762	     15.56957658	      8.67129308	     11.23991033	     29.38698289	     -2.10742920	     -6.89671664	    -15.63282288	      4.59829236	     -3.71418254	     -0.36755384	     -5.57836358	      1.33524607	     10.00664515
      0.93766667	     -3.05195558	     -0.71195668	     -5.63720995	     -0.11753974	      0.89402082	      0.33735489	    -12.92694274	      3.71810697	      1.88351584	    -11.90662388	     15.73387181	      8.79437839	     11.28511564	     29.45518277	     -2.08655155	     -6.74397939	    -15.81149049	      4.67210858	     -3.69154812	     -0.36127629	     -5.42990671	      1.24312201	     10.04638891
      0.94183333	     -3.14870841	     -0.67658693	     -5.73600426	     -0.11172358	      0.89281433	      0.33714381	    -12.80341706	      3.59490397	      1.89433486	    -12.77251333	     15.85736692	      9.03699933	     11.39232122	     29.51427869	     -2.03582435	     -6.57299528	    -16.04458293	      4.68875876	     -3.74770582	     -0.34744488	     -5.26949870	      1.17024790	     10.08578893
      0.94600000	     -3.23392110	     -0.63033772	     -5.82710516	     -0.10589803	      0.89165693	      0.33695163	    -12.68064648	      3.46928726	      1.96684725	    -13.66083471	     15.97437267	      9.17146914	     11.50055625	     29.56911685	     -1.97209037	     -6.43011272	    -16.37374004	      4.69853886	     -3.83560381	     -0.33147420	     -5.13255436	      1.04005419	     10.07359085
      0.95016667	     -3.32906677	     -0.57927506	     -5.90035956	     -0.10006570	      0.89052500	      0.33666406	    -12.49035939	      3.32532148	      1.90512180	    -14.65576279	     16.02012521	      9.48695863	     11.74096417	     29.62779362	     -1.88454734	     -6.27004275	    -16.74540115	      4.62296439	     -3.96909798	     -0.29574087	     -4.97488847	      0.95077606	     10.07545952
      0.95433333	     -3.37192791	     -0.48580046	     -5.96875816	     -0.09418648	      0.88950699	      0.33636845	    -12.33176223	      3.12806667	      1.82996715	    -15.69572422	     16.08704580	      9.81465679	     12.50727514	     29.61636054	     -1.74076535	     -6.13667747	    -17.15389397	      4.56779755	     -4.21195536	     -0.17200438	     -4.87414216	      0.76276177	     10.05895275
      0.95850000	     -3.49150578	     -0.44250069	     -6.03894868	     -0.08836455	      0.88843553	      0.33613105	    -12.07375878	      3.01730629	      1.91264239	    -16.76247232	     16.00615559	      9.84052951	     12.67699723	     29.72328430	     -1.67619389	     -6.07700787	    -17.68593290	      4.45324452	     -4.29084675	     -0.14319701	     -4.68630471	      0.65417057	      9.97555081
      0.96266667	     -3.59059668	     -0.37056644	     -6.09070425	     -0.08253137	      0.88742415	      0.33581221	    -11.78011604	      2.85927711	      1.87327394	    -17.93477131	     15.92931638	     10.06219479	     12.91021648	     29.80501504	     -1.56099128	     -6.01027052	    -18.24961304	      4.35213396	     -4.45110804	     -0.10292087	     -4.52220120	      0.51248837	      9.89545346
      0.96683333	     -3.64554860	     -0.28144954	     -6.10329127	     -0.07666845	      0.88653533	      0.33539161	    -11.50748462	      2.67084924	      1.73277799	    -19.13801837	     15.69371906	     10.28481618	     17.04791327	     29.81773265	     -1.38623084	     -5.86656036	    -18.79031938	      4.17336028	     -4.78845648	      0.64028060	     -4.41180086	      0.36204905	      9.81571784
      0.97100000	     -3.72079608	     -0.19787798	     -6.14818014	     -0.07082922	      0.88567293	      0.33506162	    -11.17284306	      2.49737153	      1.70332196	    -20.41758589	     15.48055171	     10.47333590	     17.10531319	     29.87859804	     -1.26407998	     -5.90005851	    -19.43188385	      4.07266001	     -4.88187469	      0.65731569	     -4.27524053	      0.19153362	      9.69888032
      0.97516667	     -3.77522038	     -0.10369087	     -6.14080442	     -0.06500108	      0.88487226	      0.33458972	    -10.81112235	      2.29693179	      1.52292969	    -21.78395537	     15.26308566	     10.82898190	     17.35402096	     29.91694914	     -1.08444149	     -5.83351482	    -20.07728802	      3.94498040	     -5.14875709	      0.71122579	     -4.16869440	      0.03322595	      9.57199749
      0.97933333	     -3.85309728	     -0.01238014	     -6.14643032	     -0.05920659	      0.88411066	      0.33415931	    -10.38413975	      2.11138350	      1.42576225	    -23.20902428	     14.94488463	     11.01498543	     17.58932045	     29.97960634	     -0.92484515	     -5.81411397	    -20.74099483	      3.83621849	     -5.32568791	      0.75527603	     -4.03152650	     -0.11864549	      9.42668712
      0.98350000	     -3.88018562	      0.11740291	     -6.13338294	     -0.05339223	      0.88348819	      0.33364617	     -9.96668520	      1.85604379	      1.22580161	    -24.69570064	     14.54589341	     11.38250498	     18.35177751	     29.96130911	     -0.69417505	     -5.74400339	    -21.36120586	      3.77771718	     -5.66338507	      0.88342028	     -3.95736660	     -0.33613579	      9.24848091
      0.98766667	     -3.95632368	      0.20615698	     -6.10130737	     -0.04764350	      0.88282616	      0.33319012	     -9.46904607	      1.67663799	      1.10098878	    -26.22436930	     14.08630389	     11.51389734	     18.77703249	     30.05650271	     -0.53995169	     -5.78751534	    -22.11853728	      3.72993967	     -5.78754844	      0.95059567	     -3.82956761	     -0.51742673	      9.08350333
      0.99183333	     -3.94558004	      0.39853123	     -6.05697241	     -0.04182786	      0.88240685	      0.33259158	     -9.00748523	      1.33199859	      0.82424808	    -27.82557708	     13.50455274	     11.82405891	     20.91804809	     29.95532560	     -0.21652436	     -5.69489253	    -22.64911669	      3.60754122	     -6.15016503	      1.24959076	     -3.79091469	     -0.81490928	      8.84957539
      0.99600000	     -4.01808171	      0.46772963	     -6.03658438	     -0.03615808	      0.88188183	      0.33215925	     -8.42840877	      1.16989073	      0.74451219	    -29.46550200	     12.86693126	     11.88729793	     21.09715715	     30.03952310	     -0.09938119	     -5.77718162	    -23.42056492	      3.75897346	     -6.14596630	      1.28114669	     -3.67938683	     -0.93723790	      8.70699049
      1.00016667	     -4.04233720	      0.59921508	     -5.98025318	     -0.03047478	      0.88148294	      0.33161900	     -7.85415317	      0.90878993	      0.53255076	    -31.16882580	     12.20014172	     12.11806225	     21.40112986	     30.03936259	      0.12307135	     -5.79002341	    -24.11097509	      3.86821062	     -6.29049477	      1.32068665	     -3.62139410	     -1.17688012	      8.49693152
